<svg width="16" height="16" viewBox="0 0 16 16" fill="none" xmlns="http://www.w3.org/2000/svg">
<path d="M13.3281 4.79269C13.1874 4.79602 13.0537 4.8548 12.9562 4.95623L7.99996 9.91248L3.04371 4.95623C2.99401 4.90514 2.93457 4.86453 2.86891 4.8368C2.80325 4.80907 2.7327 4.79478 2.66142 4.79477C2.55532 4.7948 2.45164 4.82647 2.36364 4.88573C2.27563 4.94499 2.2073 5.02915 2.16738 5.12745C2.12745 5.22575 2.11775 5.33372 2.13951 5.43757C2.16128 5.54141 2.21351 5.6364 2.28955 5.7104L7.62288 11.0437C7.7229 11.1437 7.85854 11.1999 7.99996 11.1999C8.14139 11.1999 8.27702 11.1437 8.37705 11.0437L13.7104 5.7104C13.7878 5.63592 13.841 5.53978 13.8629 5.43458C13.8848 5.32937 13.8744 5.22001 13.833 5.12082C13.7917 5.02163 13.7214 4.93723 13.6313 4.87868C13.5412 4.82013 13.4355 4.79015 13.3281 4.79269Z" fill="white"/>
</svg>
